<?xml version="1.0" encoding="UTF-8" standalone="no"?>
<!DOCTYPE svg PUBLIC "-//W3C//DTD SVG 1.1//EN" "http://www.w3.org/Graphics/SVG/1.1/DTD/svg11.dtd">
<svg width="100%" height="100%" viewBox="0 0 400 400"  version="1.1" xmlns="http://www.w3.org/2000/svg" xmlns:xlink="http://www.w3.org/1999/xlink" xml:space="preserve" xmlns:serif="http://www.serif.com/" style="fill-rule:evenodd;clip-rule:evenodd;stroke-linecap:round;stroke-linejoin:round;stroke-miterlimit:1.5;">
    <path style="fill:none;stroke:black;stroke-width:3px;" d="M282.146,244.694L117.102,244.694L129.905,225.486L269.343,225.486L282.146,244.694ZM186.824,170.986C190.77,172.479 195.252,173.323 200.003,173.323C204.748,173.323 209.225,172.481 213.17,170.991C231.872,178.89 245.606,202.609 245.784,225.486C245.784,225.486 199.996,225.861 199.996,225.931L154.456,225.486C154.456,202.438 168.049,178.927 186.824,170.986ZM233.392,186.86C233.392,186.86 266.245,160.073 263.53,114.443C263.427,112.703 291.062,84.114 291.062,84.114C291.062,84.114 289.434,157.559 289.632,157.735C289.829,157.912 240.291,198.211 239.982,198.458C239.674,198.705 233.392,186.86 233.392,186.86ZM166.559,186.856C166.559,186.856 133.706,160.069 136.421,114.439C136.524,112.699 108.889,84.11 108.889,84.11C108.889,84.11 110.517,157.555 110.319,157.732C110.122,157.908 159.66,198.208 159.969,198.455C160.277,198.702 166.559,186.856 166.559,186.856ZM148.09,163.802C156.425,150.788 167.21,140.418 179.438,134.78C185.613,131.932 192.394,131.873 199.624,131.873C206.845,131.873 214.178,132.322 219.532,134.788C231.95,140.505 242.928,151.218 251.384,164.634C242.99,179.034 233.392,186.86 233.392,186.86C233.392,186.86 239.674,198.705 239.982,198.458C240.117,198.351 249.614,190.626 260.268,181.931C265.838,195.478 269.061,210.441 269.166,225.193C269.166,225.193 199.484,225.814 199.484,225.931L130.18,225.193C130.18,210.162 133.376,195.013 138.991,181.363C149.923,190.285 159.831,198.345 159.969,198.455C160.277,198.702 166.559,186.856 166.559,186.856C166.559,186.856 156.592,178.729 148.09,163.802Z"/>
    <path style="fill:none;stroke:black;stroke-width:3px;" d="M144.584,244.807C144.584,263.493 169.384,293.497 199.975,293.497C230.567,293.497 255.367,263.493 255.367,244.807L199.975,244.807L144.584,244.807ZM173.477,285.911C156.262,275.781 144.584,257.629 144.584,244.807L137.7,244.807C137.7,244.807 119.326,280.103 130.153,293.497C136.428,301.259 160.242,298.514 173.477,285.911ZM226.715,285.911C243.93,275.781 255.607,257.629 255.607,244.807L262.491,244.807C262.491,244.807 280.865,280.103 270.038,293.497C263.764,301.259 239.949,298.514 226.715,285.911ZM118.649,315.904C118.649,315.904 132.153,311.525 134.537,307.587C137.191,303.205 135.788,297.493 131.406,294.839C127.024,292.185 121.312,293.588 118.658,297.97C116.273,301.908 118.649,315.904 118.649,315.904ZM281.543,315.904C281.543,315.904 268.039,311.525 265.654,307.587C263,303.205 264.403,297.493 268.785,294.839C273.167,292.185 278.88,293.588 281.534,297.97C283.918,301.908 281.543,315.904 281.543,315.904ZM220.161,251.935C221.353,251.935 222.321,254 222.321,256.543C222.321,259.086 221.353,261.151 220.161,261.151C218.968,261.151 218,259.086 218,256.543C218,254 218.968,251.935 220.161,251.935ZM179.811,251.935C181.003,251.935 181.971,254 181.971,256.543C181.971,259.086 181.003,261.151 179.811,261.151C178.618,261.151 177.65,259.086 177.65,256.543C177.65,254 178.618,251.935 179.811,251.935ZM191.202,273.008C192.474,271.44 205.894,271.375 207.306,272.93C208.718,274.485 204.808,282.157 199.673,282.338C193.872,282.543 189.93,274.577 191.202,273.008Z"/>
    <path style="fill:none;stroke:#f2849e;stroke-width:5px;" d="M199.673,49.024C282.999,49.024 350.649,116.674 350.649,200C350.649,283.326 282.999,350.976 199.673,350.976C116.347,350.976 48.697,283.326 48.697,200C48.697,130.762 95.407,72.347 159.007,54.574C171.947,50.958 199.673,49.024 199.673,49.024ZM31.817,172.956C30.406,181.761 29.673,190.796 29.673,200C29.673,209.204 30.406,218.239 31.817,227.044L-0,200L31.817,172.956ZM66.481,94.401C55.273,108.515 46.26,124.446 39.958,141.676L25.349,102.548L66.481,94.401ZM136.926,41.973C119.819,48.778 104.073,58.283 90.224,69.957L97.081,28.513L136.926,41.973ZM172.956,368.183C181.761,369.594 190.796,370.327 200,370.327C209.204,370.327 218.239,369.594 227.044,368.183L200,400L172.956,368.183ZM94.401,333.519C108.515,344.727 124.446,353.74 141.676,360.042L102.548,374.651L94.401,333.519ZM41.973,263.074C48.778,280.181 58.283,295.927 69.957,309.776L28.513,302.919L41.973,263.074ZM368.183,227.044C369.594,218.239 370.327,209.204 370.327,200C370.327,190.796 369.594,181.761 368.183,172.956L400,200L368.183,227.044ZM333.519,305.599C344.727,291.485 353.74,275.554 360.042,258.324L374.651,297.452L333.519,305.599ZM263.074,358.027C280.181,351.222 295.927,341.717 309.776,330.043L302.919,371.487L263.074,358.027ZM227.044,31.817C218.239,30.406 209.204,29.673 200,29.673C190.796,29.673 181.761,30.406 172.956,31.817L200,-0L227.044,31.817ZM305.599,66.481C291.485,55.273 275.554,46.26 258.324,39.958L297.452,25.349L305.599,66.481ZM358.027,136.926C351.222,119.819 341.717,104.073 330.043,90.224L371.487,97.081L358.027,136.926Z"/>
</svg>
